<?xml version="1.0" encoding="UTF-8" standalone="no"?> <svg width="24" height="24" viewBox="0 0 24 24" fill="none" xmlns="http://www.w3.org/2000/svg">
<path d="M13.4141 12.0001L17.7071 7.70708C17.8026 7.61483 17.8788 7.50449 17.9312 7.38249C17.9836 7.26048 18.0112 7.12926 18.0123 6.99648C18.0135 6.8637 17.9882 6.73202 17.9379 6.60913C17.8876 6.48623 17.8134 6.37458 17.7195 6.28069C17.6256 6.18679 17.5139 6.11254 17.391 6.06226C17.2681 6.01198 17.1365 5.98668 17.0037 5.98783C16.8709 5.98898 16.7397 6.01657 16.6177 6.06898C16.4957 6.12139 16.3853 6.19757 16.2931 6.29308L12.0001 10.5861L7.70708 6.29308C7.51848 6.11092 7.26588 6.01013 7.00368 6.01241C6.74148 6.01469 6.49067 6.11985 6.30526 6.30526C6.11985 6.49067 6.01469 6.74148 6.01241 7.00368C6.01013 7.26588 6.11092 7.51848 6.29308 7.70708L10.5861 12.0001L6.29308 16.2931C6.19757 16.3853 6.12139 16.4957 6.06898 16.6177C6.01657 16.7397 5.98898 16.8709 5.98783 17.0037C5.98668 17.1365 6.01198 17.2681 6.06226 17.391C6.11254 17.5139 6.18679 17.6256 6.28069 17.7195C6.37458 17.8134 6.48623 17.8876 6.60913 17.9379C6.73202 17.9882 6.8637 18.0135 6.99648 18.0123C7.12926 18.0112 7.26048 17.9836 7.38249 17.9312C7.50449 17.8788 7.61483 17.8026 7.70708 17.7071L12.0001 13.4141L16.2931 17.7071C16.4817 17.8892 16.7343 17.99 16.9965 17.9878C17.2587 17.9855 17.5095 17.8803 17.6949 17.6949C17.8803 17.5095 17.9855 17.2587 17.9878 16.9965C17.99 16.7343 17.8892 16.4817 17.7071 16.2931L13.4141 12.0001Z" fill="#bfbac4"/>
</svg>
